HIERARCHY
ROOT Hips
{
  OFFSET 5.84602e-005 68.8428 3.50346
  CHANNELS 6 Xposition Yposition Zposition Zrotation Xrotation Yrotation
  JOINT Spine
  {
    OFFSET 0 8.597 -4.6522
    CHANNELS 3 Zrotation Xrotation Yrotation
    JOINT Spine1
    {
      OFFSET 0 7.8454 0.4098
      CHANNELS 3 Zrotation Xrotation Yrotation
      JOINT Spine2
      {
        OFFSET 0 9.7078 -2.1609
        CHANNELS 3 Zrotation Xrotation Yrotation
        JOINT Neck
        {
          OFFSET 0 21.8761 -0.4549
          CHANNELS 3 Zrotation Xrotation Yrotation
          JOINT Head
          {
            OFFSET 0 12.3537 3.3602
            CHANNELS 3 Zrotation Xrotation Yrotation
            End Site
            {
              OFFSET 0.0001 18.9506 0.5657
            }
          }
        }
        JOINT LeftShoulder
        {
          OFFSET 2.2086 21.1115 7.2329
          CHANNELS 3 Zrotation Xrotation Yrotation
          JOINT LeftArm
          {
            OFFSET 13.1193 3.0282 -4.8998
            CHANNELS 3 Zrotation Xrotation Yrotation
            JOINT LeftForeArm
            {
              OFFSET 27.4081 -0.0973053 -0.2375
              CHANNELS 3 Zrotation Xrotation Yrotation
              JOINT LeftHand
              {
                OFFSET 22.8641 0.0662994 -0.1369
                CHANNELS 3 Zrotation Xrotation Yrotation
                JOINT LeftHandIndex1
                {
                  OFFSET 8.8614 0.775009 2.4612
                  CHANNELS 3 Zrotation Xrotation Yrotation
                  JOINT LeftHandIndex2
                  {
                    OFFSET 3.3146 -0.808304 0.5841
                    CHANNELS 3 Zrotation Xrotation Yrotation
                    JOINT LeftHandIndex3
                    {
                      OFFSET 2.2628 -0.552002 0.3989
                      CHANNELS 3 Zrotation Xrotation Yrotation
                      End Site
                      {
                        OFFSET 1.6102 -0.4807 0.2612
                      }
                    }
                  }
                }
                JOINT LeftHandMiddle1
                {
                  OFFSET 8.9937 0.895004 0.2143
                  CHANNELS 3 Zrotation Xrotation Yrotation
                  JOINT LeftHandMiddle2
                  {
                    OFFSET 4.0984 0.0113983 -0.0242
                    CHANNELS 3 Zrotation Xrotation Yrotation
                    JOINT LeftHandMiddle3
                    {
                      OFFSET 2.2716 0.00689697 -0.0138001
                      CHANNELS 3 Zrotation Xrotation Yrotation
                      End Site
                      {
                        OFFSET 2.0404 -0.1441 0.0027
                      }
                    }
                  }
                }
                JOINT LeftHandRing1
                {
                  OFFSET 8.5234 0.597198 -2.0164
                  CHANNELS 3 Zrotation Xrotation Yrotation
                  JOINT LeftHandRing2
                  {
                    OFFSET 3.7188 -0.188293 -0.2328
                    CHANNELS 3 Zrotation Xrotation Yrotation
                    JOINT LeftHandRing3
                    {
                      OFFSET 2.1191 -0.106598 -0.1332
                      CHANNELS 3 Zrotation Xrotation Yrotation
                      End Site
                      {
                        OFFSET 1.8737 -0.2304 -0.0886
                      }
                    }
                  }
                }
                JOINT LeftHandPinky1
                {
                  OFFSET 7.9094 -0.601089 -3.4825
                  CHANNELS 3 Zrotation Xrotation Yrotation
                  JOINT LeftHandPinky2
                  {
                    OFFSET 2.2874 -0.477005 -0.6314
                    CHANNELS 3 Zrotation Xrotation Yrotation
                    JOINT LeftHandPinky3
                    {
                      OFFSET 1.6774 -0.349396 -0.4633
                      CHANNELS 3 Zrotation Xrotation Yrotation
                      End Site
                      {
                        OFFSET 1.4888 -0.4091 -0.3416
                      }
                    }
                  }
                }
                JOINT LeftHandThumb1
                {
                  OFFSET 1.833 -1.3875 1.3896
                  CHANNELS 3 Zrotation Xrotation Yrotation
                  JOINT LeftHandThumb2
                  {
                    OFFSET 3.4129 -1.121 2.5732
                    CHANNELS 3 Zrotation Xrotation Yrotation
                    JOINT LeftHandThumb3
                    {
                      OFFSET 2.2474 -0.804199 1.6192
                      CHANNELS 3 Zrotation Xrotation Yrotation
                      End Site
                      {
                        OFFSET 1.6527 -0.5689 1.1317
                      }
                    }
                  }
                }
              }
            }
          }
        }
        JOINT RightShoulder
        {
          OFFSET -2.2086 21.1115 7.2329
          CHANNELS 3 Zrotation Xrotation Yrotation
          JOINT RightArm
          {
            OFFSET -13.1216 3.0287 -4.9007
            CHANNELS 3 Zrotation Xrotation Yrotation
            JOINT RightForeArm
            {
              OFFSET -27.4081 -0.0973053 -0.2375
              CHANNELS 3 Zrotation Xrotation Yrotation
              JOINT RightHand
              {
                OFFSET -22.8641 0.0664063 -0.1369
                CHANNELS 3 Zrotation Xrotation Yrotation
                JOINT RightHandIndex1
                {
                  OFFSET -8.8614 0.774994 2.4612
                  CHANNELS 3 Zrotation Xrotation Yrotation
                  JOINT RightHandIndex2
                  {
                    OFFSET -3.3146 -0.808304 0.5841
                    CHANNELS 3 Zrotation Xrotation Yrotation
                    JOINT RightHandIndex3
                    {
                      OFFSET -2.2628 -0.552002 0.3989
                      CHANNELS 3 Zrotation Xrotation Yrotation
                      End Site
                      {
                        OFFSET -1.6102 -0.4807 0.2612
                      }
                    }
                  }
                }
                JOINT RightHandMiddle1
                {
                  OFFSET -8.9937 0.894989 0.2143
                  CHANNELS 3 Zrotation Xrotation Yrotation
                  JOINT RightHandMiddle2
                  {
                    OFFSET -4.0984 0.0113983 -0.0242
                    CHANNELS 3 Zrotation Xrotation Yrotation
                    JOINT RightHandMiddle3
                    {
                      OFFSET -2.2716 0.00691223 -0.0138001
                      CHANNELS 3 Zrotation Xrotation Yrotation
                      End Site
                      {
                        OFFSET -2.0404 -0.1441 0.0027
                      }
                    }
                  }
                }
                JOINT RightHandRing1
                {
                  OFFSET -8.5234 0.597198 -2.0164
                  CHANNELS 3 Zrotation Xrotation Yrotation
                  JOINT RightHandRing2
                  {
                    OFFSET -3.7188 -0.188309 -0.2328
                    CHANNELS 3 Zrotation Xrotation Yrotation
                    JOINT RightHandRing3
                    {
                      OFFSET -2.1191 -0.106598 -0.1332
                      CHANNELS 3 Zrotation Xrotation Yrotation
                      End Site
                      {
                        OFFSET -1.8737 -0.2304 -0.0886
                      }
                    }
                  }
                }
                JOINT RightHandPinky1
                {
                  OFFSET -7.9094 -0.601105 -3.4825
                  CHANNELS 3 Zrotation Xrotation Yrotation
                  JOINT RightHandPinky2
                  {
                    OFFSET -2.2874 -0.477005 -0.6314
                    CHANNELS 3 Zrotation Xrotation Yrotation
                    JOINT RightHandPinky3
                    {
                      OFFSET -1.6774 -0.349396 -0.4633
                      CHANNELS 3 Zrotation Xrotation Yrotation
                      End Site
                      {
                        OFFSET -1.4888 -0.4091 -0.3416
                      }
                    }
                  }
                }
                JOINT RightHandThumb1
                {
                  OFFSET -1.833 -1.38751 1.3896
                  CHANNELS 3 Zrotation Xrotation Yrotation
                  JOINT RightHandThumb2
                  {
                    OFFSET -3.41299 -1.12099 2.5732
                    CHANNELS 3 Zrotation Xrotation Yrotation
                    JOINT RightHandThumb3
                    {
                      OFFSET -2.24741 -0.804108 1.6192
                      CHANNELS 3 Zrotation Xrotation Yrotation
                      End Site
                      {
                        OFFSET -1.6527 -0.5689 1.1317
                      }
                    }
                  }
                }
              }
            }
          }
        }
      }
    }
  }
  JOINT RightUpLeg
  {
    OFFSET -9.1966 3.8861 -0.7581
    CHANNELS 3 Zrotation Xrotation Yrotation
    JOINT RightLeg
    {
      OFFSET -0.7359 -41.0265 0
      CHANNELS 3 Zrotation Xrotation Yrotation
      JOINT RightFoot
      {
        OFFSET 0 -40.2855 0
        CHANNELS 3 Zrotation Xrotation Yrotation
        JOINT RightToeBase
        {
          OFFSET 0 -5.6122 11.7359
          CHANNELS 3 Zrotation Xrotation Yrotation
          End Site
          {
            OFFSET 0 0 7.8731
          }
        }
      }
    }
  }
  JOINT LeftUpLeg
  {
    OFFSET 9.1965 3.8864 -0.7581
    CHANNELS 3 Zrotation Xrotation Yrotation
    JOINT LeftLeg
    {
      OFFSET 0.7359 -41.0268 0
      CHANNELS 3 Zrotation Xrotation Yrotation
      JOINT LeftFoot
      {
        OFFSET 0 -40.2855 0
        CHANNELS 3 Zrotation Xrotation Yrotation
        JOINT LeftToeBase
        {
          OFFSET 0 -5.6122 11.7359
          CHANNELS 3 Zrotation Xrotation Yrotation
          End Site
          {
            OFFSET 0 0 7.8731
          }
        }
      }
    }
  }
}
MOTION
Frames:	4
Frame Time:	0.0333333
1.64259 32.0866 0.533394 0 28.9934 -0 -0.294152 2.80265 -0.585252 -0.560596 5.60813 -1.15816 -0.560596 5.60813 -1.15816 -3.96996e-006 -19.0047 -9.419e-006 3.13052e-007 14.9329 -3.00103e-007 -13.4097 -6.38123 -16.7875 -50.0014 -0.000748009 -26.0006 -30.0558 37.4714 -64.4334 53.9292 -0.534647 -13.8857 1.79448e-006 -1.71225e-006 -1.98124e-006 1.79448e-006 -1.71225e-006 -1.98124e-006 1.79448e-006 -1.71225e-006 -1.98124e-006 1.79448e-006 -1.71225e-006 -1.98124e-006 -0.0146154 -9.66984e-005 -4.01674e-006 1.79464e-006 -1.71199e-006 -1.98146e-006 1.79448e-006 -1.71225e-006 -1.98124e-006 -0.018774 -0.00118067 5.67626e-005 1.79467e-006 -1.71191e-006 -1.98154e-006 1.79448e-006 -1.71225e-006 -1.98124e-006 -0.0122772 -0.0032573 0.000676641 1.79455e-006 -1.71201e-006 -1.98148e-006 1.79448e-006 -1.71225e-006 -1.98124e-006 1.79448e-006 -1.71225e-006 -1.98124e-006 1.79448e-006 -1.71225e-006 -1.98124e-006 10.7847 -7.43901 15.5035 50.4875 0.0125934 24.5843 30.0537 37.4681 64.4292 -46.3156 -1.67887 13.9103 -1.75687e-006 -2.43177e-006 2.33905e-006 -1.85153e-006 -1.76996e-006 1.97947e-006 -1.85153e-006 -1.76996e-006 1.97947e-006 -1.75687e-006 -2.43177e-006 2.33905e-006 0.0149859 -8.72093e-005 4.07216e-006 -1.85167e-006 -1.7697e-006 1.9797e-006 -1.75687e-006 -2.43177e-006 2.33905e-006 0.0189816 -0.00118733 -5.652e-005 -1.75499e-006 -2.4315e-006 2.33946e-006 -1.75687e-006 -2.43177e-006 2.33905e-006 0.0122923 -0.00325535 -0.000676482 -1.85158e-006 -1.76973e-006 1.97972e-006 -1.75687e-006 -2.43177e-006 2.33905e-006 -1.85153e-006 -1.76996e-006 1.97947e-006 -1.85153e-006 -1.76996e-006 1.97947e-006 -9.6644 -30.7817 -19.247 -167.531 83.0608 165.2 21.5631 49.6473 -29.5875 -1.95284e-007 4.24558e-007 5.44126e-007 9.48891 -30.703 19.0464 168.48 83.2051 -166.062 -20.772 48.5572 28.8851 1.76555e-006 1.79727e-006 7.46343e-008 
1.64259 32.0878 0.382858 0 28.9934 -0 -0.293709 2.74408 -0.58644 -0.560214 5.49099 -1.16077 -0.560214 5.491 -1.16077 -4.33178e-006 -19.0046 -4.8034e-007 -2.75676e-007 15.0059 3.45997e-007 -13.4097 -6.38125 -16.7875 -50.0013 -0.000775675 -26.0006 -30.0558 37.4714 -64.4334 54.158 -0.726755 -13.5834 -2.00685e-006 2.90595e-006 2.67521e-006 -1.78976e-006 1.71683e-006 1.97807e-006 -1.78976e-006 1.71683e-006 1.97807e-006 -2.00685e-006 2.90595e-006 2.67521e-006 -0.0145937 -9.41181e-005 -5.112e-007 -1.78992e-006 1.71657e-006 1.97829e-006 -2.00685e-006 2.90595e-006 2.67521e-006 -0.0187613 -0.00117902 5.37938e-005 -1.78995e-006 1.71649e-006 1.97837e-006 -2.00685e-006 2.90595e-006 2.67521e-006 -0.0122723 -0.00323994 0.00067824 -3.3639e-006 2.24378e-006 3.25942e-006 -2.00685e-006 2.90595e-006 2.67521e-006 -1.78976e-006 1.71683e-006 1.97807e-006 -1.78976e-006 1.71683e-006 1.97807e-006 10.6306 -7.47028 15.5845 50.4631 0.0125158 24.755 30.0537 37.4681 64.4292 -46.4165 -1.79831 13.6176 1.85644e-006 1.768e-006 -1.97591e-006 1.85644e-006 1.768e-006 -1.97591e-006 1.76267e-006 2.41742e-006 -2.35537e-006 1.85644e-006 1.768e-006 -1.97591e-006 0.0150159 -8.59008e-005 5.39411e-007 1.85658e-006 1.76774e-006 -1.97614e-006 1.85644e-006 1.768e-006 -1.97591e-006 0.019004 -0.00118698 -6.49633e-005 1.8566e-006 1.76766e-006 -1.97622e-006 1.85644e-006 1.768e-006 -1.97591e-006 0.0122651 -0.00325175 -0.000676076 1.76139e-006 2.41749e-006 -2.35561e-006 1.85644e-006 1.768e-006 -1.97591e-006 1.85644e-006 1.768e-006 -1.97591e-006 1.76267e-006 2.41742e-006 -2.35537e-006 -9.69189 -30.9856 -19.2923 -167.709 82.8764 165.367 21.5715 49.6475 -29.598 -8.10923e-008 -8.25833e-008 -2.98485e-007 9.51616 -30.9074 19.0921 168.633 83.0182 -166.205 -20.78 48.5574 28.8954 -1.40486e-007 1.37839e-007 -4.95951e-007 
1.64259 32.089 0.232318 0 28.9934 -0 -0.293266 2.68545 -0.587623 -0.559833 5.37383 -1.16338 -0.559833 5.37383 -1.16338 -1.67621e-005 -19.0046 -7.29161e-006 -4.25536e-007 15.0789 -2.89176e-007 -13.4097 -6.38123 -16.7875 -50.0014 -0.000756484 -26.0006 -30.0558 37.4714 -64.4334 54.3878 -0.917624 -13.2805 1.78501e-006 -1.72136e-006 -1.97491e-006 1.78501e-006 -1.72136e-006 -1.97491e-006 1.78501e-006 -1.72136e-006 -1.97491e-006 1.78501e-006 -1.72136e-006 -1.97491e-006 -0.014613 -9.37186e-005 -5.94319e-006 1.78517e-006 -1.72111e-006 -1.97513e-006 1.78501e-006 -1.72136e-006 -1.97491e-006 -0.0187631 -0.00118371 5.65026e-005 1.78519e-006 -1.72103e-006 -1.97521e-006 1.78501e-006 -1.72136e-006 -1.97491e-006 -0.0122814 -0.00325128 0.000673633 1.78508e-006 -1.72112e-006 -1.97515e-006 1.78501e-006 -1.72136e-006 -1.97491e-006 1.78501e-006 -1.72136e-006 -1.97491e-006 1.78501e-006 -1.72136e-006 -1.97491e-006 10.4765 -7.50174 15.6654 50.4387 0.0123767 24.9257 30.0537 37.4681 64.4292 -46.518 -1.91727 13.3247 1.86135e-006 1.76605e-006 -1.97233e-006 1.86135e-006 1.76605e-006 -1.97233e-006 1.86135e-006 1.76605e-006 -1.97233e-006 1.86135e-006 1.76605e-006 -1.97233e-006 0.0149907 -8.48421e-005 -7.59815e-006 1.86149e-006 1.76579e-006 -1.97256e-006 1.86135e-006 1.76605e-006 -1.97233e-006 0.0189987 -0.00118505 -5.70623e-005 1.86151e-006 1.76571e-006 -1.97264e-006 1.86135e-006 1.76605e-006 -1.97233e-006 0.012274 -0.00324905 -0.000673864 1.8614e-006 1.76581e-006 -1.97258e-006 1.86135e-006 1.76605e-006 -1.97233e-006 1.86135e-006 1.76605e-006 -1.97233e-006 1.86135e-006 1.76605e-006 -1.97233e-006 -9.71955 -31.1897 -19.3377 -167.879 82.6916 165.526 21.5799 49.6477 -29.6084 2.43421e-007 2.47586e-007 8.95461e-007 9.54389 -31.111 19.1383 168.777 82.832 -166.34 -20.7881 48.5577 28.9057 -1.4056e-007 1.37745e-007 -4.95955e-007 
1.64259 32.0902 0.0817788 0 28.9934 -0 -0.292822 2.62689 -0.588802 -0.559456 5.25668 -1.16598 -0.559456 5.25668 -1.16598 -4.3914e-006 -19.0047 -5.62931e-006 -8.27314e-008 15.152 4.17019e-007 -13.4097 -6.38122 -16.7875 -50.0014 -0.000767378 -26.0006 -30.0558 37.4714 -64.4334 54.6186 -1.10729 -12.9767 1.78022e-006 -1.72586e-006 -1.97176e-006 1.78022e-006 -1.72586e-006 -1.97176e-006 1.78022e-006 -1.72586e-006 -1.97176e-006 1.78022e-006 -1.72586e-006 -1.97176e-006 -0.0146162 -9.1394e-005 9.94819e-007 1.78039e-006 -1.72561e-006 -1.97198e-006 1.78022e-006 -1.72586e-006 -1.97176e-006 -0.0187488 -0.00118395 5.20174e-005 1.78041e-006 -1.72552e-006 -1.97206e-006 1.78022e-006 -1.72586e-006 -1.97176e-006 -0.0122784 -0.00325236 0.000667115 1.78029e-006 -1.72562e-006 -1.97201e-006 1.78022e-006 -1.72586e-006 -1.97176e-006 1.78022e-006 -1.72586e-006 -1.97176e-006 1.78022e-006 -1.72586e-006 -1.97176e-006 10.3224 -7.53344 15.7462 50.4142 0.0121417 25.0964 30.0537 37.4681 64.4292 -46.6202 -2.03567 13.0315 -6.36111e-015 -3.97569e-016 -0 1.86624e-006 1.7641e-006 -1.96874e-006 4.6346e-031 -8.34896e-015 3.18055e-015 -6.36111e-015 -3.97569e-016 -0 0.0149887 -8.9796e-005 -1.84489e-006 1.21382e-031 -4.37326e-015 1.59028e-015 -6.36111e-015 -3.97569e-016 -0 0.0189812 -0.00119445 -6.14694e-005 -0 -3.57812e-015 -0 -6.36111e-015 -3.97569e-016 -0 0.0122669 -0.00325339 -0.000682188 -1.10348e-032 3.97569e-016 1.59028e-015 -6.36111e-015 -3.97569e-016 -0 1.86624e-006 1.7641e-006 -1.96874e-006 4.6346e-031 -8.34896e-015 3.18055e-015 -9.74736 -31.394 -19.3834 -168.04 82.5068 165.676 21.5883 49.648 -29.619 -2.43565e-007 -2.47422e-007 -8.95465e-007 9.57149 -31.3157 19.1844 168.917 82.645 -166.469 -20.7961 48.558 28.916 1.73379e-006 1.82765e-006 -2.1265e-008 
